HIERARCHY
ROOT Hips
{
	OFFSET 0.000000 0.000000 0.000000
	CHANNELS 6 Xposition Yposition Zposition Xrotation Yrotation Zrotation
	JOINT LeftUpLeg_virtual
	{
		OFFSET 0.000000 0.000000 0.000000
		CHANNELS 3 Xrotation Yrotation Zrotation
		JOINT LeftUpLeg
		{
			OFFSET 10.205400 -3.823500 0.155100
			CHANNELS 3 Xrotation Yrotation Zrotation
			JOINT LeftLeg
			{
				OFFSET 0.708757 -12.982077 0.567790
				CHANNELS 3 Xrotation Yrotation Zrotation
				JOINT LeftFoot
				{
					OFFSET -0.708756 -10.717838 -2.184338
					CHANNELS 3 Xrotation Yrotation Zrotation
					JOINT LeftToeBase
					{
						OFFSET 0.108149 -7.191104 7.560241
						CHANNELS 3 Xrotation Yrotation Zrotation
						JOINT LeftToe_End
						{
							OFFSET 0.070230 0.081724 4.490308
							CHANNELS 3 Xrotation Yrotation Zrotation
							End Site
							{
								OFFSET 0 0 0
							}
						}
					}
				}
			}
		}
	}
	JOINT RightUpLeg_virtual
	{
		OFFSET 0.000000 0.000000 0.000000
		CHANNELS 3 Xrotation Yrotation Zrotation
		JOINT RightUpLeg
		{
			OFFSET -10.205400 -3.823500 0.005500
			CHANNELS 3 Xrotation Yrotation Zrotation
			JOINT RightLeg
			{
				OFFSET -0.708756 -12.982134 0.610632
				CHANNELS 3 Xrotation Yrotation Zrotation
				JOINT RightFoot
				{
					OFFSET 0.708754 -10.717769 -1.945823
					CHANNELS 3 Xrotation Yrotation Zrotation
					JOINT RightToeBase
					{
						OFFSET -0.108140 -7.191069 7.372968
						CHANNELS 3 Xrotation Yrotation Zrotation
						JOINT RightToe_End
						{
							OFFSET -0.070227 0.081735 4.479403
							CHANNELS 3 Xrotation Yrotation Zrotation
							End Site
							{
								OFFSET 0 0 0
							}
						}
					}
				}
			}
		}
	}
	JOINT Spine_virtual
	{
		OFFSET 0.000000 0.000000 0.000000
		CHANNELS 3 Xrotation Yrotation Zrotation
		JOINT Spine
		{
			OFFSET 0.000000 6.876099 0.125700
			CHANNELS 3 Xrotation Yrotation Zrotation
			JOINT Spine1
			{
				OFFSET 0.000000 5.730043 0.104720
				CHANNELS 3 Xrotation Yrotation Zrotation
				JOINT Spine1_split
				{
					OFFSET 0.000000 5.730043 0.104720
					CHANNELS 3 Xrotation Yrotation Zrotation
					JOINT Spine2
					{
						OFFSET 0.000000 5.730043 0.104720
						CHANNELS 3 Xrotation Yrotation Zrotation
						JOINT Neck_virtual
						{
							OFFSET 0.000000 0.000000 0.000000
							CHANNELS 3 Xrotation Yrotation Zrotation
							JOINT Neck
							{
								OFFSET 0.000000 10.314075 0.188496
								CHANNELS 3 Xrotation Yrotation Zrotation
								JOINT Head
								{
									OFFSET 0.000000 7.643700 -2.377400
									CHANNELS 3 Xrotation Yrotation Zrotation
									JOINT HeadTop_End
									{
										OFFSET 0.000000 43.788605 -13.619600
										CHANNELS 3 Xrotation Yrotation Zrotation
										End Site
										{
											OFFSET 0 0 0
										}
									}
								}
							}
						}
						JOINT LeftShoulder_virtual
						{
							OFFSET 0.000000 0.000000 0.000000
							CHANNELS 3 Xrotation Yrotation Zrotation
							JOINT LeftShoulder
							{
								OFFSET 2.196100 4.412489 0.087492
								CHANNELS 3 Xrotation Yrotation Zrotation
								JOINT LeftShoulder_split
								{
									OFFSET 2.196100 4.412489 0.087492
									CHANNELS 3 Xrotation Yrotation Zrotation
									JOINT LeftArm
									{
										OFFSET 8.771219 -2.981674 -0.026999
										CHANNELS 3 Xrotation Yrotation Zrotation
										JOINT LeftForeArm
										{
											OFFSET 8.512804 0.000000 -0.000000
											CHANNELS 3 Xrotation Yrotation Zrotation
											JOINT LeftHand
											{
												OFFSET 18.484802 0.000000 -0.000000
												CHANNELS 3 Xrotation Yrotation Zrotation
												End Site
												{
													OFFSET 0 0 0
												}
											}
										}
									}
								}
							}
						}
						JOINT RightShoulder_virtual
						{
							OFFSET 0.000000 0.000000 0.000000
							CHANNELS 3 Xrotation Yrotation Zrotation
							JOINT RightShoulder
							{
								OFFSET -2.196100 4.412496 0.070690
								CHANNELS 3 Xrotation Yrotation Zrotation
								JOINT RightShoulder_split
								{
									OFFSET -2.196100 4.412496 0.070690
									CHANNELS 3 Xrotation Yrotation Zrotation
									JOINT RightArm
									{
										OFFSET -8.771282 -2.981682 -0.094208
										CHANNELS 3 Xrotation Yrotation Zrotation
										JOINT RightForeArm
										{
											OFFSET -8.494598 0.000000 0.000000
											CHANNELS 3 Xrotation Yrotation Zrotation
											JOINT RightHand
											{
												OFFSET -18.483803 0.000000 0.000001
												CHANNELS 3 Xrotation Yrotation Zrotation
												End Site
												{
													OFFSET 0 0 0
												}
											}
										}
									}
								}
							}
						}
					}
				}
			}
		}
	}
}
MOTION
Frames: 4
Frame Time: 0.03333333
0.635070 30.360855 -0.498867 0.000000 0.000000 0.000000 -6.074696 -42.881437 -3.766962 -38.922260 1.090290 18.107281 41.177322 -17.081719 -0.676193 0.038818 2.549621 -12.588937 -2.319115 -3.216963 0.802950 0.000000 0.000000 0.000000 -6.074696 -42.881437 -3.766962 7.888803 -14.575275 -20.694575 34.940396 -4.463842 0.506907 -32.442757 -10.395277 23.856444 -1.784888 -0.356705 0.333199 0.000000 0.000000 0.000000 -6.074696 -42.881437 -3.766962 5.853146 4.467297 -1.470693 11.836796 9.036867 -3.086775 0.000000 0.000000 0.000000 0.000000 0.000000 0.000000 11.836807 9.036859 -3.086778 -4.023283 -0.974170 0.382902 -6.479897 20.161236 -0.594153 0.000000 0.000000 0.000000 11.836807 9.036859 -3.086778 1.392491 -0.696043 -7.878306 0.000000 0.000000 0.000000 -14.270874 2.385514 -63.280787 9.855342 -47.499338 5.919358 0.000000 0.000000 0.000000 11.836807 9.036859 -3.086778 1.409771 9.464730 9.801438 0.000000 0.000000 0.000000 1.234149 -24.280872 60.535529 -6.660156 41.888994 8.039893 0.000000 0.000000 0.000000 
0.578007 30.274208 -0.790848 0.000000 0.000000 0.000000 -3.368163 -40.304335 -3.132030 -44.128008 1.408511 19.167655 42.749802 -13.448124 1.312825 1.970889 -1.010249 -12.542696 -2.203020 -3.055404 0.763574 0.000000 0.000000 0.000000 -3.368163 -40.304335 -3.132030 6.691228 -15.512350 -18.614371 34.718456 -3.589400 -0.377705 -32.460167 -10.197235 23.987454 -1.456789 -0.644438 0.637651 0.000000 0.000000 0.000000 -3.368163 -40.304335 -3.132030 5.951787 4.282972 -1.400982 12.004168 8.695480 -2.784137 0.000000 0.000000 0.000000 0.000000 0.000000 0.000000 12.004169 8.695492 -2.784137 -4.402253 -1.432521 -0.308002 -7.743044 19.546103 -0.146670 0.000000 0.000000 0.000000 12.004169 8.695492 -2.784137 1.744170 -1.717839 -6.596031 0.000000 0.000000 0.000000 -9.656334 2.899140 -62.029299 12.853459 -52.487039 6.201670 0.000000 0.000000 0.000000 12.004169 8.695492 -2.784137 1.665590 8.672820 8.386867 0.000000 0.000000 0.000000 -0.517099 -21.343885 59.835073 -0.867242 43.424044 3.841143 0.000000 0.000000 0.000000 
0.528351 30.092171 -1.129168 0.000000 0.000000 0.000000 -0.418314 -37.732458 -2.829089 -50.276179 1.426479 21.375446 44.452124 -8.862386 2.594627 3.768225 -5.405814 -12.306562 -2.081907 -2.886969 0.722273 0.000000 0.000000 0.000000 -0.418314 -37.732458 -2.829089 4.110343 -17.428805 -15.813894 35.997378 -1.824490 -3.406214 -32.759438 -10.288095 24.796759 -1.577295 -0.758803 0.900070 0.000000 0.000000 0.000000 -0.418314 -37.732458 -2.829089 6.085541 4.050797 -1.336096 12.238727 8.275168 -2.450793 0.000000 0.000000 0.000000 0.000000 0.000000 0.000000 12.238719 8.275169 -2.450795 -4.719265 -1.744778 -0.984014 -9.495653 19.031755 0.296236 0.000000 0.000000 0.000000 12.238719 8.275169 -2.450795 2.070259 -2.775729 -5.543111 0.000000 0.000000 0.000000 -4.738521 3.304515 -61.853360 16.932061 -58.793353 7.337204 0.000000 0.000000 0.000000 12.238719 8.275169 -2.450795 1.923295 8.317062 6.899301 0.000000 0.000000 0.000000 -1.712059 -18.994030 59.533548 3.482602 44.694921 -0.233187 0.000000 0.000000 0.000000 
0.472067 29.726524 -1.503057 0.000000 0.000000 0.000000 2.837002 -35.176564 -2.775998 -57.732727 1.173027 24.378712 46.918342 -3.758398 3.474831 5.513993 -10.133898 -11.615625 -1.957529 -2.714160 0.679667 0.000000 0.000000 0.000000 2.837002 -35.176564 -2.775998 0.008016 -19.429492 -12.717187 39.997704 0.229250 -7.749259 -34.017460 -10.686766 25.708347 -1.765350 -0.842399 -0.030001 0.000000 0.000000 0.000000 2.837002 -35.176564 -2.775998 6.296417 3.766180 -1.318666 12.632945 7.773741 -2.210915 0.000000 0.000000 0.000000 0.000000 0.000000 0.000000 12.632936 7.773748 -2.210914 -6.197457 -2.053150 -1.054633 -10.757922 18.868824 0.448699 0.000000 0.000000 0.000000 12.632936 7.773748 -2.210914 2.357293 -3.333951 -4.567855 0.000000 0.000000 0.000000 -0.673015 4.524637 -59.057347 17.457880 -61.904231 5.584634 0.000000 0.000000 0.000000 12.632936 7.773748 -2.210914 2.065884 7.068646 5.762652 0.000000 0.000000 0.000000 -1.782040 -15.925665 59.508638 8.094045 46.911242 -4.976513 0.000000 0.000000 0.000000 
